<svg width="185" height="35" xmlns="http://www.w3.org/2000/svg"><g fill="#B6C8D5"><path d="M72.016 27.311c-6.744 4.962-16.52 7.608-24.936 7.608-11.802 0-22.426-4.356-30.464-11.6-.631-.57-.065-1.347.693-.903 8.674 5.037 19.4 8.067 30.478 8.067 7.472 0 15.691-1.543 23.249-4.745 1.142-.484 2.096.746.98 1.573"/><path d="M74.82 24.11c-.859-1.099-5.699-.52-7.871-.262-.662.08-.763-.494-.167-.908 3.855-2.707 10.18-1.926 10.917-1.018.738.912-.192 7.24-3.814 10.26-.556.464-1.086.216-.838-.398.813-2.027 2.637-6.57 1.773-7.674M67.1 3.827V1.195a.65.65 0 0 1 .667-.665h11.807c.379 0 .682.272.682.665V3.45c-.005.378-.323.872-.89 1.654L73.25 13.82c2.273-.056 4.673.282 6.734 1.442.465.262.591.645.627 1.023v2.808c0 .384-.425.832-.87.6-3.632-1.9-8.456-2.107-12.472.02-.41.222-.84-.221-.84-.605v-2.666c0-.43.006-1.16.435-1.81l7.088-10.145h-6.168c-.38 0-.682-.267-.682-.66zM24.034 20.248H20.44a.678.678 0 0 1-.642-.61V1.241c0-.368.308-.66.692-.66h3.35a.676.676 0 0 1 .652.614V3.6h.065c.874-2.324 2.516-3.408 4.729-3.408 2.248 0 3.652 1.084 4.663 3.408.869-2.324 2.844-3.408 4.96-3.408 1.506 0 3.153.62 4.158 2.011 1.137 1.548.905 3.797.905 5.768l-.005 11.611a.678.678 0 0 1-.692.666h-3.587c-.359-.026-.647-.313-.647-.666v-9.75c0-.777.07-2.713-.1-3.449C38.672 5.148 37.87 4.8 36.828 4.8c-.868 0-1.778.58-2.147 1.508-.368.927-.333 2.48-.333 3.524v9.75a.678.678 0 0 1-.692.666H30.07a.678.678 0 0 1-.647-.666l-.005-9.75c0-2.052.339-5.072-2.212-5.072-2.582 0-2.48 2.944-2.48 5.072v9.75a.679.679 0 0 1-.693.666zM90.42.192c5.33 0 8.215 4.568 8.215 10.376 0 5.611-3.188 10.063-8.215 10.063-5.233 0-8.083-4.567-8.083-10.26 0-5.727 2.885-10.179 8.083-10.179zm.03 3.756c-2.647 0-2.814 3.6-2.814 5.843 0 2.249-.035 7.049 2.784 7.049 2.784 0 2.915-3.872 2.915-6.232 0-1.553-.066-3.408-.535-4.88-.404-1.28-1.208-1.78-2.35-1.78zm15.096 16.3h-3.577a.682.682 0 0 1-.647-.666l-.005-18.402c.03-.337.329-.6.692-.6h3.33c.313.015.57.227.641.515v2.813h.066C107.05 1.392 108.46.192 110.94.192c1.612 0 3.183.58 4.193 2.168.94 1.472.94 3.948.94 5.727v11.58c-.04.324-.338.58-.692.58h-3.602c-.329-.024-.601-.266-.637-.58V9.676c0-2.011.233-4.956-2.248-4.956-.874 0-1.677.585-2.076 1.473-.505 1.124-.57 2.243-.57 3.483v9.907a.69.69 0 0 1-.703.666zm12.776-1.462c0-.928.793-1.674 1.768-1.674s1.769.746 1.769 1.674c0 .922-.794 1.679-1.769 1.679-.975 0-1.768-.757-1.768-1.68zm38.056 1.467c-.374-.015-.667-.302-.667-.666V1.19c.02-.327.299-.585.642-.605h1.319c.364 0 .656.262.687.605v2.682c.94-2.127 2.687-3.791 4.895-3.791h.268c2.344 0 4.057 1.724 4.693 4.23.995-2.476 2.864-4.23 5.33-4.23h.273c1.742 0 3.42 1.12 4.289 2.823.838 1.629.808 3.797.808 5.617l-.005 11.066c.005.353-.283.64-.642.666h-1.576a.689.689 0 0 1-.667-.575V8.521c0-1.316.066-2.713-.47-3.912-.545-1.226-1.591-1.992-2.713-2.047-1.252.06-2.404.973-3.152 2.203-.97 1.588-.935 3.02-.935 4.875v10.048c-.045.303-.313.54-.641.565h-1.566c-.374-.015-.672-.302-.672-.666l-.01-11.802c0-1.084-.066-2.36-.566-3.333-.581-1.11-1.622-1.835-2.713-1.89-1.132.065-2.274.927-2.95 1.93-.874 1.281-1.041 2.864-1.041 4.493v10.602c0 .353-.288.64-.647.666h-1.57zm-10.82.383c-5.098 0-7.382-5.188-7.382-10.376 0-5.455 2.683-10.179 7.816-10.179h.272c4.992 0 7.477 5.032 7.477 10.22 0 5.495-2.753 10.335-7.916 10.335h-.268zm.373-2.516c1.677-.055 3-1.094 3.784-2.823.702-1.553.839-3.333.839-5.037 0-1.855-.203-3.791-1.077-5.38-.783-1.386-2.126-2.268-3.551-2.318-1.586.055-3.006 1.129-3.718 2.783-.642 1.432-.839 3.332-.839 4.915 0 1.78.232 3.837.97 5.385.717 1.467 2.097 2.42 3.592 2.475zm-16.303-.08c2.289-.07 3.491-1.901 3.986-4.27.101-.298.329-.525.662-.525l1.511-.005c.359.015.687.287.657.62-.697 4.038-3.138 6.776-6.613 6.776h-.273c-5.062 0-7.245-5.072-7.245-10.22 0-5.107 2.213-10.335 7.275-10.335h.273c3.516 0 6.022 2.702 6.567 6.74 0 .303-.282.565-.616.6l-1.581-.02c-.333-.045-.55-.327-.601-.645-.38-2.253-1.678-4.048-3.84-4.119-3.44.111-4.42 4.336-4.42 7.588 0 3.131.818 7.704 4.258 7.815zm-65.543-1.165c-.657-.908-1.354-1.644-1.354-3.322V7.966c0-2.364.166-4.537-1.582-6.166C59.77.48 57.487.016 55.74.016c-3.415 0-7.235 1.27-8.033 5.485-.086.449.243.686.535.751l3.481.373c.329-.015.566-.332.627-.655.298-1.452 1.515-2.153 2.884-2.153.743 0 1.582.272 2.016.933.505.736.44 1.744.44 2.596v.464c-2.082.237-4.805.388-6.755 1.245-2.253.968-3.83 2.95-3.83 5.859 0 3.726 2.35 5.586 5.376 5.586 2.551 0 3.95-.6 5.921-2.607.652.943.869 1.402 2.061 2.39a.751.751 0 0 0 .849-.085l.005.01c.717-.636 2.02-1.77 2.753-2.38.293-.242.243-.63.016-.953zm-7.068-1.613c-.571 1.008-1.48 1.628-2.486 1.628-1.379 0-2.187-1.048-2.187-2.596 0-3.056 2.743-3.61 5.345-3.61v.776c0 1.397.035 2.562-.672 3.802zm-40.022 1.613c-.656-.908-1.353-1.644-1.353-3.322V7.966c0-2.364.166-4.537-1.582-6.166C12.681.48 10.397.016 8.65.016 5.234.016 1.42 1.286.617 5.5c-.08.449.242.686.535.751l3.486.373c.324-.015.561-.332.622-.655.298-1.452 1.52-2.153 2.89-2.153.737 0 1.576.272 2.015.933.5.736.435 1.744.435 2.596v.464c-2.082.237-4.805.388-6.755 1.245-2.248.968-3.83 2.95-3.83 5.859 0 3.726 2.355 5.586 5.376 5.586 2.556 0 3.95-.6 5.921-2.607.657.943.869 1.402 2.061 2.39a.751.751 0 0 0 .849-.085l.01.01c.718-.636 2.02-1.77 2.753-2.38.293-.242.243-.63.01-.953zm-7.067-1.613c-.571 1.008-1.475 1.628-2.486 1.628-1.379 0-2.182-1.048-2.182-2.596 0-3.056 2.743-3.61 5.34-3.61v.776c0 1.397.035 2.562-.672 3.802zM182.643.782c.864 0 1.582.696 1.582 1.573a1.59 1.59 0 0 1-1.582 1.578 1.578 1.578 0 0 1-1.576-1.578 1.57 1.57 0 0 1 1.576-1.573zm.006-.303a1.886 1.886 0 0 0-1.885 1.881c0 1.044.859 1.875 1.885 1.875 1.03 0 1.879-.842 1.879-1.875 0-1.064-.864-1.88-1.88-1.88zm-.708 2.935h.405v-.847h.373c.147 0 .187.06.218.181 0 .03.07.565.076.666h.45c-.056-.101-.087-.389-.107-.56-.04-.267-.06-.454-.349-.474.147-.05.4-.131.4-.52 0-.554-.49-.554-.743-.554h-.723v2.108zm.394-1.77h.339c.11 0 .313 0 .313.287 0 .111-.05.298-.323.298h-.329v-.585z"/></g></svg>