<svg width="16" height="16" xmlns="http://www.w3.org/2000/svg"><g fill="#96ABBA" fill-rule="evenodd"><path d="M13.354 15.86H2.646c-1.178 0-1.178-1.767 0-1.767h10.708c1.178 0 1.178 1.767 0 1.767zM8 12.207a.883.883 0 0 1-.883-.883V4.296c0-1.177 1.767-1.177 1.767 0v7.028a.882.882 0 0 1-.884.883z"/><path d="M8 12.555c-.787 0-1.181-.952-.625-1.508l3.018-3.018c.833-.833 2.081.416 1.248 1.249l-3.017 3.018a.882.882 0 0 1-.624.259z"/><path d="M8 12.555a.883.883 0 0 1-.625-.26L4.359 9.279c-.833-.833.415-2.082 1.248-1.249l3.018 3.018c.556.556.162 1.508-.625 1.508z"/><path d="M14.96 8.867a.883.883 0 0 1-.882-.882 6.077 6.077 0 0 0-12.154 0c0 1.177-1.767 1.177-1.767 0a7.843 7.843 0 0 1 15.686 0 .883.883 0 0 1-.883.882z"/></g></svg>