<svg xmlns="http://www.w3.org/2000/svg" viewBox="0 0 80 30"><path d="M47.4 8.3h7.4v2.2H50v2.4h4v2.2h-4v2.7h4.9V20h-7.5V8.3zm10.5 0h3.3c3.6 0 5.9 1.8 5.9 5.8S64.8 20 61.4 20h-3.5V8.3zm3.2 9.6c2 0 3.3-1 3.3-3.8s-1.3-3.7-3.3-3.7h-.5v7.5h.5zm9-9.6h3.3c3.6 0 5.9 1.8 5.9 5.8S77 20 73.6 20h-3.5V8.3zm3.2 9.6c2 0 3.3-1 3.3-3.8s-1.3-3.7-3.3-3.7h-.5v7.5h.5z" fill="#434f57"/><g transform="matrix(-1 0 0 1 32 0)"><linearGradient id="a" gradientUnits="userSpaceOnUse" x1="146.152" y1="158.683" x2="146.334" y2="159.31" gradientTransform="matrix(-19.725 0 0 -21 2890.9 3352.375)"><stop offset="0" stop-color="#fd9a84"/><stop offset="1" stop-color="#ffd78c"/></linearGradient><path opacity=".75" fill="url(#a)" d="M.7 21.4h19.7V.4H.7z"/><linearGradient id="b" gradientUnits="userSpaceOnUse" x1="149.999" y1="160.559" x2="149.999" y2="161.272" gradientTransform="matrix(-11.475 0 0 -29.475 1727.65 4759.225)"><stop offset="0" stop-color="#b3e496"/><stop offset=".484" stop-color="#ffb264"/><stop offset="1" stop-color="#f26cb0"/></linearGradient><path opacity=".8" fill="url(#b)" d="M.7 21.4l11.4 8.5v-21L.7.4z"/><linearGradient id="c" gradientUnits="userSpaceOnUse" x1="143.519" y1="149.982" x2="142.635" y2="150.498" gradientTransform="matrix(-31.425 0 0 -8.775 4540.6 1323.025)"><stop offset="0" stop-color="#eb60a6"/><stop offset=".484" stop-color="#c181cf"/><stop offset="1" stop-color="#9ca6db"/></linearGradient><path opacity=".8" fill="url(#c)" d="M12.1 8.9L.7.4h19.7l11.7 8.7z"/><path opacity=".3" fill="#ef9d54" d="M12.1 21.4V8.9l8.3.1-.2 1.3h-6.7v11.1z"/></g></svg>