<svg width="32" height="30" xmlns="http://www.w3.org/2000/svg"><defs><linearGradient x1="37.353%" y1="93.649%" x2="55.501%" y2="30.856%" id="a"><stop stop-color="#FD9A84" offset="0%"/><stop stop-color="#FFD78C" offset="100%"/></linearGradient><linearGradient x1="49.946%" y1="89.483%" x2="49.946%" y2="18.139%" id="b"><stop stop-color="#B3E496" offset="0%"/><stop stop-color="#FFB264" offset="48.43%"/><stop stop-color="#F26CB0" offset="100%"/></linearGradient><linearGradient x1="94.937%" y1="74.869%" x2="6.545%" y2="23.257%" id="c"><stop stop-color="#EB60A6" offset="0%"/><stop stop-color="#C181CF" offset="48.43%"/><stop stop-color="#9CA6DB" offset="100%"/></linearGradient></defs><g fill="none"><path fill="url(#a)" opacity=".75" d="M.675 21.375H20.4v-21H.675z" transform="matrix(-1 0 0 1 32.337 0)"/><path fill="url(#b)" opacity=".8" d="M.675 21.375L12.15 29.85v-21L.675.375z" transform="matrix(-1 0 0 1 32.337 0)"/><path fill="url(#c)" opacity=".8" d="M12.15 8.85L.675.375H20.4L32.1 9.15z" transform="matrix(-1 0 0 1 32.337 0)"/><path fill="#EF9D54" opacity=".3" d="M20.187 21.375V8.85l-8.25.15.15 1.275h6.75v11.1z"/></g></svg>