<svg width="142" height="30" xmlns="http://www.w3.org/2000/svg"><path d="M141.965 13.553v-2.468h-3.1V7.248l-.105.032-2.912.88-.057.018v2.907h-4.596v-1.62c0-.754.17-1.33.506-1.715.334-.38.812-.574 1.42-.574.439 0 .892.102 1.348.303l.114.05V4.93l-.053-.02c-.426-.15-1.005-.226-1.722-.226-.905 0-1.726.194-2.443.58A4.152 4.152 0 0 0 128.69 6.9c-.394.7-.594 1.509-.594 2.403v1.78h-2.158v2.469h2.158v10.396h3.1V13.553h4.596v6.607c0 2.72 1.298 4.1 3.86 4.1.42 0 .863-.05 1.315-.145.46-.098.774-.195.958-.3l.041-.024v-2.49l-.126.082c-.168.11-.377.201-.623.268a2.393 2.393 0 0 1-.612.103c-.6 0-1.044-.16-1.32-.475-.278-.318-.42-.874-.42-1.653v-6.073h3.101zm-22.95 8.202c-1.124 0-2.011-.369-2.636-1.095-.629-.73-.948-1.77-.948-3.093 0-1.364.32-2.432.948-3.174.626-.738 1.504-1.113 2.611-1.113 1.075 0 1.93.358 2.543 1.064.616.71.929 1.769.929 3.149 0 1.397-.294 2.47-.874 3.187-.575.713-1.44 1.075-2.572 1.075zm.138-10.98c-2.146 0-3.85.621-5.066 1.847-1.214 1.226-1.83 2.923-1.83 5.044 0 2.014.601 3.634 1.787 4.814 1.186 1.181 2.8 1.78 4.796 1.78 2.08 0 3.75-.631 4.965-1.874 1.215-1.241 1.83-2.922 1.83-4.993 0-2.046-.577-3.678-1.717-4.85-1.14-1.174-2.743-1.768-4.765-1.768zm-11.893 0c-1.46 0-2.667.369-3.59 1.097-.928.732-1.398 1.692-1.398 2.854 0 .604.101 1.14.301 1.595.201.457.513.859.926 1.196.41.335 1.044.685 1.884 1.042.706.287 1.232.53 1.567.721.327.188.559.376.69.56.127.18.191.426.191.73 0 .863-.654 1.284-2.002 1.284-.5 0-1.07-.103-1.694-.307a6.393 6.393 0 0 1-1.735-.87l-.129-.09v2.949l.048.022c.438.2.99.369 1.643.501.65.133 1.24.2 1.754.2 1.584 0 2.86-.37 3.79-1.102.938-.737 1.412-1.72 1.412-2.922 0-.867-.255-1.61-.759-2.21-.5-.595-1.369-1.142-2.58-1.624-.965-.383-1.583-.7-1.838-.945-.246-.235-.37-.569-.37-.99 0-.375.154-.675.47-.917.319-.244.762-.368 1.319-.368.516 0 1.045.08 1.57.238.525.158.986.37 1.371.629l.127.085v-2.797l-.049-.021c-.355-.15-.823-.28-1.392-.384a8.595 8.595 0 0 0-1.527-.156zm-13.068 10.98c-1.124 0-2.011-.369-2.636-1.095-.63-.73-.947-1.77-.947-3.093 0-1.364.318-2.432.947-3.174.625-.738 1.503-1.113 2.611-1.113 1.075 0 1.93.358 2.543 1.064.616.71.928 1.769.928 3.149 0 1.397-.294 2.47-.873 3.187-.576.713-1.44 1.075-2.573 1.075zm.138-10.98c-2.146 0-3.85.621-5.066 1.847-1.214 1.226-1.83 2.923-1.83 5.044 0 2.015.601 3.634 1.787 4.814 1.186 1.181 2.8 1.78 4.795 1.78 2.08 0 3.752-.631 4.966-1.874 1.215-1.241 1.83-2.922 1.83-4.993 0-2.046-.577-3.678-1.717-4.85-1.14-1.174-2.743-1.768-4.765-1.768zm-11.6 2.538v-2.228h-3.062v12.864h3.061v-6.58c0-1.12.257-2.039.763-2.733.5-.686 1.167-1.034 1.98-1.034.276 0 .586.045.92.134.333.088.573.184.715.285l.128.093v-3.051l-.05-.021c-.284-.12-.688-.18-1.198-.18a3.16 3.16 0 0 0-2.047.725c-.518.423-.892 1.003-1.178 1.726h-.033zm-8.544-2.538c-1.405 0-2.658.298-3.723.884a5.993 5.993 0 0 0-2.456 2.496c-.559 1.065-.843 2.31-.843 3.697 0 1.216.275 2.331.82 3.314a5.726 5.726 0 0 0 2.29 2.29c.975.533 2.1.804 3.347.804 1.455 0 2.697-.288 3.693-.855l.04-.023V20.61l-.128.093a5.779 5.779 0 0 1-1.498.77c-.54.187-1.034.282-1.467.282-1.201 0-2.165-.372-2.865-1.104-.702-.734-1.058-1.764-1.058-3.06 0-1.304.371-2.36 1.102-3.14.73-.777 1.695-1.17 2.872-1.17 1.006 0 1.986.336 2.914 1.001l.129.092v-2.92l-.042-.024c-.349-.193-.825-.353-1.416-.474a8.555 8.555 0 0 0-1.711-.181zm-9.13.31h-3.062v12.864h3.062V11.085zm-1.5-5.48c-.504 0-.943.17-1.304.505a1.659 1.659 0 0 0-.547 1.262c0 .493.182.91.541 1.237.357.327.798.493 1.31.493a1.9 1.9 0 0 0 1.316-.492c.364-.329.548-.745.548-1.238 0-.483-.18-.903-.533-1.248-.353-.345-.8-.52-1.33-.52zm-7.638 4.53V23.95h3.124V6h-4.324l-5.496 13.333L43.888 6h-4.5v17.95h2.936V10.134h.1l5.633 13.815h2.216l5.544-13.813h.1zm-41.516 4.1H0V0h14.402zm15.901 0H15.9V0h14.402zM14.401 29.959H0V15.723h14.401zm15.902 0H15.9V15.723h14.402z" fill="#B6C8D5"/></svg>