<svg width="126" height="42" xmlns="http://www.w3.org/2000/svg"><path d="M125.03 10C123.327.121 93.978-2.96 59.472 3.114c-14.49 2.552-27.575 6.317-37.765 10.552 1.565.035 2.726.397 3.431 1.109.552.558.83 1.324.83 2.279v.98h-3.383v-.866c0-.72-.428-1.167-1.185-1.167-.636 0-1.028.29-1.154.862-.043.227-.038.46.013.683.362 1.497 5.386 2.426 5.933 5.188.072.355.169 1.116.015 2.204-.313 2.227-2.248 3.086-4.712 3.086-3.44 0-4.836-1.647-4.836-3.917l.002-1.075h3.628l.001 1.339c0 .752.541 1.167 1.278 1.167.698 0 1.105-.284 1.246-.865.065-.267.094-.66-.025-.962-.671-1.702-5.362-2.498-5.94-5.25a4.66 4.66 0 0 1-.032-1.812c.055-.33.156-.65.3-.952C5.815 21.043-.797 26.924.077 32.002c1.703 9.878 31.052 12.957 65.556 6.883 15.168-2.67 28.804-6.666 39.182-11.145-.15.008-.296.024-.451.024-2.362 0-4.47-.895-4.69-3.336a9.322 9.322 0 0 1-.046-.883l.001-5.611c0-.242.028-.667.055-.886.28-2.36 2.124-3.332 4.68-3.332 1.98 0 4.405.574 4.672 3.334.035.346.031.716.03.838v.53h-3.416v-.791a3.31 3.31 0 0 0-.043-.497c-.056-.282-.293-.935-1.266-.935-.962 0-1.211.654-1.273.935a2.99 2.99 0 0 0-.053.622v6.099c-.003.211.008.377.029.499.017.095.19.936 1.308.936 1.111 0 1.283-.84 1.299-.936.03-.165.033-.362.032-.5v-1.889h-1.345v-2.035h4.755v3.62a8.69 8.69 0 0 1-.046.882 3.427 3.427 0 0 1-.57 1.646c11.006-5.285 17.414-11.07 16.552-16.075zM35.557 27.503L33.826 15.61h-.063L31.99 27.504h-3.648l2.454-13.43h5.952l2.439 13.43h-3.628zm17.548 0l-.08-11.663h-.06L50.82 27.504h-3.424L45.26 15.841h-.06l-.079 11.663h-3.393l.294-13.43h5.458l1.589 9.976h.077l1.594-9.977h5.455l.292 13.431h-3.381zm15.977-2.602c-.365 2.601-2.886 3.056-4.667 3.056-2.958 0-4.788-1.278-4.788-3.88l.002-1.06h3.584l.002 1.32c0 .719.5 1.158 1.273 1.158.69 0 1.093-.28 1.234-.855.064-.267.091-.658-.024-.953-.66-1.67-5.315-2.489-5.88-5.199a4.578 4.578 0 0 1-.033-1.795c.394-2.456 2.726-2.967 4.602-2.967 1.68 0 2.901.37 3.634 1.112.546.553.823 1.312.823 2.257v.969h-3.351v-.855c0-.732-.45-1.156-1.172-1.156-.64 0-1.028.288-1.155.855a1.65 1.65 0 0 0 .016.675c.36 1.49 5.34 2.4 5.884 5.136.07.349.167 1.098.016 2.182zm12.411-1.22c.005.251-.02.755-.033.884-.204 2.213-1.77 3.337-4.64 3.337-2.882 0-4.449-1.124-4.652-3.337a10.803 10.803 0 0 1-.033-.882V14.07h3.429v9.917c-.004.222.007.385.029.5.042.22.26.936 1.227.936.964 0 1.181-.717 1.227-.934.019-.117.03-.29.03-.503V14.07h3.416v9.611zm14.771 3.686h-4.77l-3.203-10.639h-.053l.177 10.639H85.09V14.073h4.97l2.96 10.22h.07l-.175-10.22h3.349v13.295z" fill="#B6C8D5"/></svg>