<svg width="16" height="31" xmlns="http://www.w3.org/2000/svg"><g fill="#7A8F9D" fill-rule="evenodd" opacity=".7"><path d="M16 7.72C16 3.457 12.497 0 8.178 0h-.356C3.502 0 0 3.457 0 7.72v6.56C0 18.544 3.503 22 7.822 22h.356C12.498 22 16 18.543 16 14.28V7.72zm-1.31 6.56a6.356 6.356 0 0 1-1.908 4.544 6.547 6.547 0 0 1-4.604 1.883h-.356c-1.8 0-3.422-.718-4.603-1.883A6.374 6.374 0 0 1 1.31 14.28V7.72c0-1.777.726-3.378 1.908-4.544a6.545 6.545 0 0 1 4.603-1.883h.356c1.8 0 3.423.718 4.604 1.883A6.371 6.371 0 0 1 14.69 7.72v6.56z"/><path d="M7.5 7c-.276 0-.5.272-.5.608v1.784c0 .335.224.608.5.608s.5-.273.5-.608V7.608C7.998 7.272 7.776 7 7.5 7zm.083 23.855a.67.67 0 0 0 .833 0l3.333-2.666a.667.667 0 0 0-.832-1.043L8 29.48l-2.915-2.334a.666.666 0 1 0-.833 1.043l3.332 2.666z"/></g></svg>