<?xml version="1.0" encoding="UTF-8"?>
<svg width="185px" height="35px" viewBox="0 0 185 35" version="1.1" xmlns="http://www.w3.org/2000/svg" xmlns:xlink="http://www.w3.org/1999/xlink">
    <!-- Generator: Sketch 42 (36781) - http://www.bohemiancoding.com/sketch -->
    <title>amazon_logo</title>
    <desc>Created with Sketch.</desc>
    <defs></defs>
    <g id="Page-1" stroke="none" stroke-width="1" fill="none" fill-rule="evenodd">
        <g id="Edd-landing-page" transform="translate(-510.000000, -3875.000000)" fill-rule="nonzero" fill="#B6C8D5">
            <g transform="translate(-256.000000, -2.000000)" id="Clients">
                <g transform="translate(256.000000, 3779.000000)">
                    <g id="amazon_logo" transform="translate(510.000000, 98.000000)">
                        <g id="Group">
                            <path d="M72.0159783,27.3113462 C65.2717306,32.2725 55.496146,34.9194231 47.0796625,34.9194231 C35.2782407,34.9194231 24.6540128,30.5632692 16.6163741,23.3184615 C15.9849018,22.7488462 16.550664,21.9723077 17.3085464,22.4161538 C25.9828603,27.4525 36.7080621,30.4828846 47.7868653,30.4828846 C55.258549,30.4828846 63.4782876,28.94 71.0359148,25.7384615 C72.1776522,25.2544231 73.1324723,26.4844231 72.0159783,27.3113462" id="Shape"></path>
                            <path d="M74.8199313,24.11 C73.9610749,23.0109615 69.1212645,23.5905769 66.9487839,23.8478846 C66.287058,23.9286538 66.1860841,23.3538462 66.7820999,22.9403846 C70.6368366,20.2328846 76.9617728,21.0142308 77.6994219,21.9217308 C78.4368783,22.8344231 77.5074944,29.1617308 73.8851518,32.1817308 C73.3294099,32.6455769 72.7989115,32.3984615 73.0465288,31.7836538 C73.860101,29.7567308 75.6837977,25.2140385 74.8199313,24.11" id="Shape"></path>
                            <path d="M67.1006302,3.82711538 L67.1006302,1.19538462 C67.1006302,0.797115385 67.4037446,0.53 67.7673663,0.53 L79.5739909,0.53 C79.9528358,0.53 80.2559502,0.802307692 80.2559502,1.19538462 L80.2559502,3.44903846 C80.2509401,3.82711538 79.9326025,4.32134615 79.3668403,5.10269231 L73.248862,13.8198077 C75.5223165,13.7642308 77.9219884,14.1021154 79.9830894,15.2617308 C80.4478777,15.5238462 80.5740951,15.9071154 80.6095516,16.2851923 L80.6095516,19.0934615 C80.6095516,19.4765385 80.1852299,19.9253846 79.740675,19.6932692 C76.1081194,17.7926923 71.2835321,17.5859615 67.2675069,19.7134615 C66.8582157,19.9353846 66.4286912,19.4917308 66.4286912,19.1084615 L66.4286912,16.4415385 C66.4286912,16.0128846 66.4337014,15.2819231 66.8632259,14.6315385 L73.9510546,4.4875 L67.7825894,4.4875 C67.4035519,4.4875 67.1006302,4.22038462 67.1006302,3.82711538 L67.1006302,3.82711538 Z M24.0327535,20.2480769 L20.4406645,20.2480769 C20.0972762,20.2228846 19.8244154,19.9655769 19.7991719,19.6380769 L19.7991719,1.24076923 C19.7991719,0.872692308 20.1074892,0.580384615 20.4913442,0.580384615 L23.840826,0.580384615 C24.1894172,0.595384615 24.4672882,0.862692308 24.4925316,1.19538462 L24.4925316,3.60019231 L24.5582418,3.60019231 C25.4321285,1.27596154 27.0741107,0.191923077 29.2868653,0.191923077 C31.5348836,0.191923077 32.9394615,1.27596154 33.9497787,3.60019231 C34.8186553,1.27596154 36.7940055,0.191923077 38.9107963,0.191923077 C40.4161554,0.191923077 42.0631478,0.812115385 43.0684548,2.20346154 C44.2049893,3.75134615 43.9725952,5.99980769 43.9725952,7.97115385 L43.9677777,19.5821154 C43.9677777,19.9501923 43.6594604,20.2476923 43.2756054,20.2476923 L39.6887193,20.2476923 C39.3301078,20.2225 39.0422166,19.935 39.0422166,19.5821154 L39.0422166,9.83173077 C39.0422166,9.05538462 39.1127441,7.11942308 38.9412426,6.38326923 C38.673392,5.14807692 37.8700328,4.80019231 36.829462,4.80019231 C35.9605854,4.80019231 35.0510494,5.38 34.6822249,6.30769231 C34.313593,7.23538462 34.3490495,8.78807692 34.3490495,9.83173077 L34.3490495,19.5825 C34.3490495,19.9505769 34.0407323,20.2480769 33.6568772,20.2480769 L30.0699911,20.2480769 C29.7061768,20.2228846 29.4234884,19.9353846 29.4234884,19.5825 L29.4184782,9.83173077 C29.4184782,7.77980769 29.7570491,4.75980769 27.2057237,4.75980769 C24.6243373,4.75980769 24.7253112,7.70423077 24.7253112,9.83173077 L24.7253112,19.5825 C24.7247331,19.9505769 24.4166085,20.2480769 24.0327535,20.2480769 L24.0327535,20.2480769 Z M90.4202073,0.192115385 C95.7500495,0.192115385 98.634743,4.75980769 98.634743,10.5680769 C98.634743,16.1794231 95.4469351,20.6313462 90.4202073,20.6313462 C85.1865215,20.6313462 82.3370918,16.0636538 82.3370918,10.3715385 C82.3370918,4.64384615 85.221978,0.192115385 90.4202073,0.192115385 L90.4202073,0.192115385 Z M90.4504609,3.94807692 C87.8033644,3.94807692 87.6364877,7.54788462 87.6364877,9.79134615 C87.6364877,12.04 87.6010312,16.8396154 90.4200146,16.8396154 C93.2035415,16.8396154 93.3349617,12.9676923 93.3349617,10.6080769 C93.3349617,9.05519231 93.2692516,7.19980769 92.7996459,5.72769231 C92.3955575,4.44711538 91.5921983,3.94807692 90.4504609,3.94807692 L90.4504609,3.94807692 Z M105.545675,20.2480769 L101.968809,20.2480769 C101.610197,20.2228846 101.322306,19.9355769 101.322306,19.5825 L101.317296,1.18038462 C101.34755,0.842692308 101.645654,0.580384615 102.009468,0.580384615 L105.338717,0.580384615 C105.651851,0.595384615 105.909489,0.807307692 105.980209,1.09461538 L105.980209,3.90769231 L106.045919,3.90769231 C107.051226,1.39192308 108.460622,0.191923077 110.941227,0.191923077 C112.552763,0.191923077 114.124025,0.771730769 115.134342,2.35980769 C116.073939,3.83192308 116.073939,6.3075 116.073939,8.08711538 L116.073939,19.6678846 C116.033665,19.9905769 115.735561,20.2478846 115.381767,20.2478846 L111.77985,20.2478846 C111.451492,20.2226923 111.178824,19.9805769 111.143368,19.6678846 L111.143368,9.67538462 C111.143368,7.66384615 111.375569,4.71942308 108.895157,4.71942308 C108.02127,4.71942308 107.217911,5.30423077 106.818832,6.19153846 C106.31377,7.31576923 106.24806,8.43519231 106.24806,9.67538462 L106.24806,19.5823077 C106.24305,19.9505769 105.929722,20.2480769 105.545675,20.2480769 L105.545675,20.2480769 Z M118.32215,18.7857692 C118.32215,17.8580769 119.115296,17.1119231 120.090349,17.1119231 C121.065403,17.1119231 121.858549,17.8578846 121.858549,18.7857692 C121.858549,19.7084615 121.065403,20.4646154 120.090349,20.4646154 C119.115296,20.4646154 118.32215,19.7084615 118.32215,18.7857692 L118.32215,18.7857692 Z M156.378329,20.2528846 C156.004495,20.2378846 155.7114,19.9505769 155.7114,19.5875 L155.7114,1.19019231 C155.731634,0.8625 156.009505,0.605384615 156.353086,0.585192308 L157.67172,0.585192308 C158.035535,0.585192308 158.328436,0.847307692 158.35869,1.19019231 L158.35869,3.87230769 C159.298287,1.74480769 161.046253,0.0809615385 163.253997,0.0809615385 L163.521655,0.0809615385 C165.86583,0.0809615385 167.578532,1.80519231 168.214822,4.31096154 C169.210109,1.83538462 171.079282,0.0809615385 173.544664,0.0809615385 L173.817525,0.0809615385 C175.560481,0.0809615385 177.237535,1.20019231 178.106604,2.90442308 C178.945227,4.53288462 178.91478,6.70076923 178.91478,8.52096154 L178.90977,19.5875 C178.91478,19.9403846 178.626889,20.2276923 178.268278,20.2528846 L176.692006,20.2528846 C176.348617,20.2378846 176.070554,19.9959615 176.025077,19.6782692 L176.025077,8.52096154 C176.025077,7.205 176.090787,5.80846154 175.555278,4.60865385 C175.009557,3.38346154 173.963783,2.61711538 172.842279,2.56153846 C171.589547,2.62211538 170.437597,3.53461538 169.689928,4.76480769 C168.720077,6.35288462 168.755341,7.78480769 168.755341,9.64019231 L168.755341,19.6882692 C168.709864,19.9905769 168.442206,20.2276923 168.113656,20.2528846 L166.547596,20.2528846 C166.173954,20.2378846 165.87585,19.9505769 165.87585,19.5875 L165.865637,7.78480769 C165.865637,6.70076923 165.799927,5.42519231 165.299682,4.45211538 C164.718697,3.34288462 163.678126,2.61692308 162.586876,2.56134615 C161.455351,2.62692308 160.313421,3.48903846 159.636472,4.4925 C158.762585,5.77307692 158.595901,7.35615385 158.595901,8.98461538 L158.595901,19.5873077 C158.595901,19.9401923 158.307817,20.2275 157.949206,20.2526923 L156.378329,20.2526923 L156.378329,20.2528846 Z M145.557164,20.6361538 C140.459716,20.6361538 138.176241,15.4482692 138.176241,10.2601923 C138.176241,4.80519231 140.858794,0.0809615385 145.991698,0.0809615385 L146.264366,0.0809615385 C151.255638,0.0809615385 153.741446,5.11269231 153.741446,10.3005769 C153.741446,15.7959615 150.98798,20.6361538 145.825014,20.6361538 L145.557164,20.6361538 L145.557164,20.6361538 Z M145.930998,18.1201923 C147.608052,18.065 148.931696,17.0263462 149.714822,15.2969231 C150.417207,13.7440385 150.553638,11.9642308 150.553638,10.2601923 C150.553638,8.405 150.351497,6.46884615 149.477418,4.88076923 C148.694485,3.49423077 147.350607,2.61192308 145.925988,2.56153846 C144.339696,2.61711538 142.919895,3.69096154 142.207682,5.34461538 C141.566189,6.77653846 141.369059,8.67730769 141.369059,10.2603846 C141.369059,12.0401923 141.60126,14.0971154 142.338909,15.645 C143.056325,17.1119231 144.43566,18.0648077 145.930998,18.1201923 L145.930998,18.1201923 Z M129.628337,18.0396154 C131.917015,17.9692308 133.119259,16.1390385 133.614494,13.7692308 C133.715468,13.4717308 133.942852,13.2448077 134.276413,13.2448077 L135.786975,13.2398077 C136.145586,13.255 136.473944,13.5273077 136.44369,13.86 C135.746508,17.8984615 133.306369,20.6359615 129.83067,20.6359615 L129.557809,20.6359615 C124.495818,20.6359615 122.313317,15.5638462 122.313317,10.4163462 C122.313317,5.30903846 124.526072,0.0807692308 129.588063,0.0807692308 L129.860924,0.0807692308 C133.37709,0.0807692308 135.882938,2.78307692 136.428467,6.82153846 C136.428467,7.12403846 136.145586,7.38634615 135.812218,7.42153846 L134.230936,7.40134615 C133.897568,7.35596154 133.680397,7.07365385 133.629717,6.75615385 C133.250872,4.5025 131.952471,2.70769231 129.790204,2.63711538 C126.349576,2.74826923 125.369512,6.97307692 125.369512,10.225 C125.369512,13.3559615 126.187902,17.9286538 129.628337,18.0396154 L129.628337,18.0396154 Z M64.0845164,16.875 C63.4278006,15.9675 62.7306182,15.2313462 62.7306182,13.5525 L62.7306182,7.96634615 C62.7306182,5.60173077 62.8973022,3.42884615 61.149336,1.80038462 C59.7701943,0.479423077 57.4867194,0.0155769231 55.7387532,0.0155769231 C52.3235613,0.0155769231 48.504281,1.28596154 47.7061247,5.50096154 C47.6201812,5.94961538 47.9485391,6.18653846 48.2414405,6.25211538 L51.7221499,6.62519231 C52.0505078,6.61 52.2881048,6.2925 52.3486121,5.96980769 C52.6467163,4.51788462 53.8641842,3.81711538 55.2333056,3.81711538 C55.9759648,3.81711538 56.8145878,4.08942308 57.2491224,4.74980769 C57.7543774,5.48596154 57.6886673,6.49423077 57.6886673,7.34615385 L57.6886673,7.81 C55.6071403,8.04692308 52.8841206,8.19826923 50.9340139,9.05538462 C48.6809854,10.0234615 47.1047133,12.0048077 47.1047133,14.9138462 C47.1047133,18.6398077 49.4537055,20.5 52.4800323,20.5 C55.031165,20.5 56.4307328,19.9001923 58.4010729,17.8932692 C59.0527785,18.8361538 59.2699495,19.295 60.4621738,20.2832692 C60.7300245,20.4244231 61.0734128,20.4092308 61.3108171,20.1976923 L61.3158273,20.2076923 C62.0332431,19.5723077 63.3364616,18.4380769 64.0691006,17.8280769 C64.3623874,17.5859615 64.3119004,17.1976923 64.0845164,16.875 Z M57.0167283,15.2617308 C56.4457632,16.2701923 55.53642,16.8901923 54.5313057,16.8901923 C53.1521639,16.8901923 52.3436019,15.8415385 52.3436019,14.2936538 C52.3436019,11.2384615 55.0868549,10.6838462 57.6886673,10.6838462 L57.6886673,11.4601923 C57.68886,12.8567308 57.7241237,14.0215385 57.0167283,15.2617308 L57.0167283,15.2617308 Z M16.995219,16.875 C16.3385032,15.9675 15.6415135,15.2313462 15.6415135,13.5525 L15.6415135,7.96634615 C15.6415135,5.60173077 15.8081975,3.42884615 14.0602312,1.80038462 C12.6810895,0.479423077 10.397422,0.0155769231 8.64964846,0.0155769231 C5.23445654,0.0155769231 1.42018645,1.28596154 0.617019947,5.50096154 C0.536086662,5.94961538 0.859434404,6.18653846 1.15233582,6.25211538 L4.63824801,6.62519231 C4.96159575,6.61 5.19900005,6.2925 5.25970002,5.96980769 C5.55780428,4.51788462 6.78047498,3.81711538 8.14940368,3.81711538 C8.88705276,3.81711538 9.72567575,4.08942308 10.1652206,4.74980769 C10.6652726,5.48596154 10.5995625,6.49423077 10.5995625,7.34615385 L10.5995625,7.81 C8.51822822,8.04692308 5.79520858,8.19826923 3.84510182,9.05538462 C1.59708349,10.0234615 0.0158012604,12.0048077 0.0158012604,14.9138462 C0.0158012604,18.6398077 2.36999635,20.5 5.39112025,20.5 C7.94745586,20.5 9.34182074,19.9001923 11.3121608,17.8932692 C11.9688766,18.8361538 12.1810374,19.295 13.3732618,20.2832692 C13.6411124,20.4244231 13.9845008,20.4092308 14.2219051,20.1976923 L14.2321181,20.2076923 C14.9495339,19.5723077 16.2527525,18.4380769 16.9853914,17.8280769 C17.2782928,17.5859615 17.2276131,17.1976923 16.995219,16.875 L16.995219,16.875 Z M9.92762356,15.2617308 C9.35665851,16.2701923 8.4525181,16.8901923 7.44220093,16.8901923 C6.06305922,16.8901923 5.25970002,15.8415385 5.25970002,14.2936538 C5.25970002,11.2384615 8.00276027,10.6838462 10.5995625,10.6838462 L10.5995625,11.4601923 C10.5995625,12.8567308 10.6348263,14.0215385 9.92762356,15.2617308 L9.92762356,15.2617308 Z M182.643493,0.781923077 C183.507166,0.781923077 184.224775,1.47769231 184.224775,2.355 C184.224775,3.21211538 183.517379,3.93307692 182.643493,3.93307692 C181.774423,3.93307692 181.06722,3.22730769 181.06722,2.355 C181.06722,1.4675 181.784636,0.781923077 182.643493,0.781923077 L182.643493,0.781923077 Z M182.648503,0.479423077 C181.637993,0.479423077 180.764106,1.29615385 180.764106,2.36 C180.764106,3.40365385 181.622962,4.23538462 182.648503,4.23538462 C183.679053,4.23538462 184.527696,3.39346154 184.527696,2.36 C184.527696,1.29615385 183.664023,0.479423077 182.648503,0.479423077 L182.648503,0.479423077 Z M181.9413,3.41365385 L182.345581,3.41365385 L182.345581,2.56673077 L182.719223,2.56673077 C182.865866,2.56673077 182.906333,2.62730769 182.936587,2.74826923 C182.936587,2.77846154 183.007307,3.31307692 183.01251,3.41365385 L183.462075,3.41365385 C183.406578,3.31288462 183.376131,3.02538462 183.355898,2.85403846 C183.315431,2.58673077 183.295391,2.40019231 183.007307,2.38019231 C183.153758,2.32980769 183.406385,2.24903846 183.406385,1.86076923 C183.406385,1.30615385 182.916161,1.30615385 182.663726,1.30615385 L181.9413,1.30615385 L181.9413,3.41365385 L181.9413,3.41365385 Z M182.335175,1.64403846 L182.673746,1.64403846 C182.78474,1.64403846 182.986881,1.64403846 182.986881,1.93134615 C182.986881,2.04230769 182.936394,2.22884615 182.663533,2.22884615 L182.335175,2.22884615 L182.335175,1.64403846 L182.335175,1.64403846 Z" id="Shape"></path>
                        </g>
                    </g>
                </g>
            </g>
        </g>
    </g>
</svg>