<?xml version="1.0" encoding="UTF-8"?>
<svg width="16px" height="16px" viewBox="0 0 16 16" version="1.1" xmlns="http://www.w3.org/2000/svg" xmlns:xlink="http://www.w3.org/1999/xlink">
    <!-- Generator: Sketch 42 (36781) - http://www.bohemiancoding.com/sketch -->
    <title>download_btn_icon</title>
    <desc>Created with Sketch.</desc>
    <defs></defs>
    <g id="Page-1" stroke="none" stroke-width="1" fill="none" fill-rule="evenodd">
        <g id="Edd-landing-page" transform="translate(-740.000000, -250.000000)" fill="#96ABBA">
            <g transform="translate(-256.000000, -2.000000)" id="Header">
                <g transform="translate(256.000000, 0.000000)">
                    <g id="Headline-/-Tagline" transform="translate(633.000000, 116.000000)">
                        <g id="Download" transform="translate(87.000000, 125.000000)">
                            <g id="download_btn_icon" transform="translate(20.000000, 11.000000)">
                                <path d="M13.354449,15.8595918 L2.64555102,15.8595918 C1.46808163,15.8595918 1.46808163,14.0930612 2.64555102,14.0930612 L13.354449,14.0930612 C14.5319184,14.0930612 14.5319184,15.8595918 13.354449,15.8595918 Z" id="Fill-1"></path>
                                <path d="M8,12.2066939 L8,12.2066939 C7.51281633,12.2066939 7.11738776,11.8112653 7.11738776,11.3240816 L7.11738776,4.29583673 C7.11738776,3.11869388 8.88391837,3.11869388 8.88391837,4.29583673 L8.88391837,11.3240816 C8.88391837,11.8125714 8.4884898,12.208 8,12.2066939 Z" id="Fill-2"></path>
                                <path d="M8,12.5547755 L8,12.5547755 C7.21306122,12.5547755 6.81893878,11.6032653 7.37502041,11.0471837 L10.3928163,8.02938776 C11.2257959,7.19640816 12.474449,8.44506122 11.6414694,9.27804082 L8.62367347,12.2958367 C8.45779592,12.4617143 8.23346939,12.5547755 8,12.5547755 Z" id="Fill-3"></path>
                                <path d="M8,12.5547755 L8,12.5547755 C7.76522449,12.5547755 7.54089796,12.4617143 7.37502041,12.2958367 L4.35853061,9.27804082 C3.52555102,8.44506122 4.77420408,7.19640816 5.60718367,8.02938776 L8.62497959,11.0471837 C9.18106122,11.6032653 8.78693878,12.5547755 8,12.5547755 Z" id="Fill-4"></path>
                                <path d="M14.9603265,8.86726531 L14.9603265,8.86726531 C14.4731429,8.86726531 14.0777143,8.47183673 14.0777143,7.98465306 C14.0777143,4.62889796 11.3570612,1.9082449 8.00130612,1.9082449 C4.6442449,1.9082449 1.92359184,4.62889796 1.92359184,7.98465306 C1.92359184,9.16212245 0.156734694,9.16212245 0.156734694,7.98465306 C0.156734694,3.65322449 3.6682449,0.141714286 8,0.141714286 C12.3317551,0.141714286 15.8432653,3.65322449 15.8432653,7.98465306 C15.8432653,8.47183673 15.4478367,8.86726531 14.9603265,8.86726531 Z" id="Fill-5"></path>
                            </g>
                        </g>
                    </g>
                </g>
            </g>
        </g>
    </g>
</svg>