<?xml version="1.0" encoding="utf-8"?>
<!-- Generator: Adobe Illustrator 20.1.0, SVG Export Plug-In . SVG Version: 6.00 Build 0)  -->
<svg version="1.1" id="Layer_1" xmlns="http://www.w3.org/2000/svg" xmlns:xlink="http://www.w3.org/1999/xlink" x="0px" y="0px"
	 viewBox="0 0 80 30" style="enable-background:new 0 0 80 30;" xml:space="preserve">
<style type="text/css">
	.st0{enable-background:new    ;}
	.st1{fill:#434F57;}
	.st2{opacity:0.75;fill:url(#Shape_4_);enable-background:new    ;}
	.st3{opacity:0.8;fill:url(#Shape_5_);enable-background:new    ;}
	.st4{opacity:0.8;fill:url(#Shape_6_);enable-background:new    ;}
	.st5{opacity:0.3;fill:#EF9D54;enable-background:new    ;}
</style>
<title>Logo</title>
<desc>Created with Sketch.</desc>
<g id="Page-1">
	<g id="Edd-landing-page" transform="translate(-51.000000, -23.000000)">
		<g id="Header" transform="translate(-256.000000, -2.000000)">
			<g transform="translate(256.000000, 0.000000)">
				<g id="Topbar" transform="translate(50.000000, 25.000000)">
					<g id="Logo">
						<g class="st0">
							<path class="st1" d="M48.4,8.3h7.4v2.2H51v2.4h4v2.2h-4v2.7h4.9V20h-7.5V8.3z"/>
							<path class="st1" d="M58.9,8.3h3.3c3.6,0,5.9,1.8,5.9,5.8S65.8,20,62.4,20h-3.5V8.3z M62.1,17.9c2,0,3.3-1,3.3-3.8
								s-1.3-3.7-3.3-3.7h-0.5v7.5H62.1z"/>
							<path class="st1" d="M71.1,8.3h3.3c3.6,0,5.9,1.8,5.9,5.8S78,20,74.6,20h-3.5V8.3z M74.3,17.9c2,0,3.3-1,3.3-3.8
								s-1.3-3.7-3.3-3.7h-0.5v7.5H74.3z"/>
						</g>
						<g id="Symbol">
							<g id="Layer_1_1_" transform="translate(16.500000, 15.000000) scale(-1, 1) translate(-16.500000, -15.000000) ">
								
									<linearGradient id="Shape_4_" gradientUnits="userSpaceOnUse" x1="146.1522" y1="158.6825" x2="146.3336" y2="159.3104" gradientTransform="matrix(-19.725 0 0 -21 2890.9001 3352.375)">
									<stop  offset="0" style="stop-color:#FD9A84"/>
									<stop  offset="1" style="stop-color:#FFD78C"/>
								</linearGradient>
								<polygon id="Shape" class="st2" points="0.7,21.4 20.4,21.4 20.4,0.4 0.7,0.4 								"/>
								
									<linearGradient id="Shape_5_" gradientUnits="userSpaceOnUse" x1="149.9989" y1="160.5589" x2="149.9989" y2="161.2724" gradientTransform="matrix(-11.475 0 0 -29.475 1727.6499 4759.2251)">
									<stop  offset="0" style="stop-color:#B3E496"/>
									<stop  offset="0.4843" style="stop-color:#FFB264"/>
									<stop  offset="1" style="stop-color:#F26CB0"/>
								</linearGradient>
								<polygon id="Shape_1_" class="st3" points="0.7,21.4 12.1,29.9 12.1,8.9 0.7,0.4 								"/>
								
									<linearGradient id="Shape_6_" gradientUnits="userSpaceOnUse" x1="143.5186" y1="149.9816" x2="142.6347" y2="150.4977" gradientTransform="matrix(-31.425 0 0 -8.775 4540.6001 1323.0249)">
									<stop  offset="0" style="stop-color:#EB60A6"/>
									<stop  offset="0.4843" style="stop-color:#C181CF"/>
									<stop  offset="1" style="stop-color:#9CA6DB"/>
								</linearGradient>
								<polygon id="Shape_2_" class="st4" points="12.1,8.9 0.7,0.4 20.4,0.4 32.1,9.1 								"/>
								<polygon id="Shape_3_" class="st5" points="12.1,21.4 12.1,8.9 20.4,9 20.2,10.3 13.5,10.3 13.5,21.4 								"/>
							</g>
						</g>
					</g>
				</g>
			</g>
		</g>
	</g>
</g>
</svg>
