<?xml version="1.0" encoding="UTF-8"?>
<svg width="142px" height="30px" viewBox="0 0 142 30" version="1.1" xmlns="http://www.w3.org/2000/svg" xmlns:xlink="http://www.w3.org/1999/xlink">
    <!-- Generator: Sketch 42 (36781) - http://www.bohemiancoding.com/sketch -->
    <title>microsoft_logo</title>
    <desc>Created with Sketch.</desc>
    <defs></defs>
    <g id="Page-1" stroke="none" stroke-width="1" fill="none" fill-rule="evenodd">
        <g id="Edd-landing-page" transform="translate(-1190.000000, -3877.000000)" fill-rule="nonzero" fill="#B6C8D5">
            <g transform="translate(-256.000000, -2.000000)" id="Clients">
                <g transform="translate(256.000000, 3779.000000)">
                    <g id="microsoft_logo" transform="translate(1190.000000, 100.000000)">
                        <g id="Group">
                            <path d="M141.965118,13.5526697 L141.965118,11.0847964 L138.864739,11.0847964 L138.864739,7.24819005 L138.760368,7.27995475 L135.848269,8.16067873 L135.790865,8.17791855 L135.790865,11.0849321 L131.194542,11.0849321 L131.194542,9.46547511 C131.194542,8.71140271 131.365106,8.13434389 131.701292,7.74950226 C132.035143,7.36927602 132.512642,7.17597285 133.121704,7.17597285 C133.559515,7.17597285 134.012843,7.27791855 134.469056,7.47895928 L134.583453,7.52945701 L134.583453,4.93045249 L134.529619,4.91090498 C134.104031,4.75968326 133.525182,4.68352941 132.807629,4.68352941 C131.903306,4.68352941 131.081656,4.8780543 130.365064,5.26357466 C129.64806,5.64963801 129.084043,6.20076923 128.688942,6.90149321 C128.295215,7.60140271 128.095398,8.40977376 128.095398,9.30434389 L128.095398,11.0847964 L125.936559,11.0847964 L125.936559,13.5526697 L128.095398,13.5526697 L128.095398,23.9493665 L131.194542,23.9493665 L131.194542,13.5526697 L135.790865,13.5526697 L135.790865,20.1595928 C135.790865,22.8806335 137.089327,24.2595475 139.650133,24.2595475 C140.070915,24.2595475 140.513807,24.2108145 140.966037,24.1153846 C141.426369,24.0173756 141.739896,23.9195023 141.924468,23.8149774 L141.965255,23.791086 L141.965255,21.3004072 L141.839186,21.3828054 C141.670956,21.4935747 141.461526,21.5841176 141.215979,21.651448 C140.969333,21.72 140.763337,21.7543439 140.603758,21.7543439 C140.003897,21.7543439 139.560044,21.5945701 139.284696,21.2792308 C139.00619,20.9610407 138.864876,20.4046154 138.864876,19.6262443 L138.864876,13.5526697 L141.965118,13.5526697 Z M119.015638,21.7547511 C117.890762,21.7547511 117.00388,21.3860633 116.378888,20.659819 C115.75005,19.9299095 115.431443,18.889276 115.431443,17.5671041 C115.431443,16.2029864 115.75005,15.1353394 116.379162,14.3925339 C117.004567,13.6546154 117.882934,13.2800905 118.990369,13.2800905 C120.064983,13.2800905 120.920416,13.6377828 121.533186,14.3438009 C122.148977,15.0534842 122.461542,16.1125792 122.461542,17.4925792 C122.461542,18.8895475 122.167654,19.9626244 121.588118,20.6804525 C121.012565,21.3928507 120.147106,21.7547511 119.015638,21.7547511 L119.015638,21.7547511 Z M119.153381,10.7748869 C117.007313,10.7748869 115.302764,11.3964706 114.087387,12.6223982 C112.872834,13.8484615 112.257043,15.5451584 112.257043,17.6657919 C112.257043,19.68 112.858139,21.3001357 114.043853,22.4804525 C115.229567,23.6611765 116.843203,24.259276 118.83958,24.259276 C120.919867,24.259276 122.590495,23.6290045 123.805323,22.3861086 C125.020014,21.1445701 125.635393,19.4638914 125.635393,17.3928054 C125.635393,15.3471041 125.057917,13.7148869 123.918484,12.5424434 C122.778501,11.369457 121.175027,10.7748869 119.153381,10.7748869 L119.153381,10.7748869 Z M107.260263,10.7748869 C105.800437,10.7748869 104.592888,11.1439819 103.670437,11.8717195 C102.742356,12.6038009 102.271586,13.5639367 102.271586,14.7257919 C102.271586,15.3297285 102.373211,15.8661991 102.573164,16.3212217 C102.774354,16.7777376 103.085683,17.1796833 103.499323,17.5170136 C103.909805,17.851629 104.543449,18.2021267 105.383089,18.558733 C106.088969,18.8458371 106.615358,19.0886878 106.949758,19.2800905 C107.276605,19.4676923 107.508557,19.6562443 107.639571,19.8399095 C107.766876,20.019638 107.831422,20.2656109 107.831422,20.5691403 C107.831422,21.4334389 107.176629,21.8539819 105.829277,21.8539819 C105.32953,21.8539819 104.75947,21.7508145 104.135027,21.5474661 C103.51502,21.3471921 102.929841,21.0539031 102.39999,20.6778733 L102.271311,20.5866516 L102.271311,23.5360181 L102.318553,23.5577376 C102.75705,23.7578281 103.309944,23.9265611 103.961578,24.0593213 C104.611977,24.1922172 105.202911,24.259819 105.716253,24.259819 C107.300364,24.259819 108.576029,23.8889593 109.506857,23.1568778 C110.44359,22.4197738 110.918342,21.4369683 110.918342,20.2349321 C110.918342,19.3677828 110.66277,18.6241629 110.159041,18.0244344 C109.658745,17.4295928 108.790402,16.8834842 107.579282,16.4007692 C106.614397,16.0179638 105.996271,15.700181 105.741248,15.4562443 C105.495426,15.2205882 105.370592,14.8873303 105.370592,14.4652941 C105.370592,14.0911765 105.524677,13.791448 105.84095,13.548733 C106.159694,13.3047964 106.60341,13.180724 107.159874,13.180724 C107.676238,13.180724 108.204549,13.2613575 108.729977,13.4193665 C109.254992,13.5773756 109.716149,13.7890045 110.101087,14.0478733 L110.227706,14.1333937 L110.227706,11.3356561 L110.179091,11.3150226 C109.823954,11.1644796 109.355656,11.0356561 108.786832,10.9311312 C108.220617,10.8272851 107.707,10.7748869 107.260263,10.7748869 L107.260263,10.7748869 Z M94.1922805,21.7547511 C93.0676789,21.7547511 92.1805222,21.3860633 91.5556673,20.659819 C90.9266925,19.9299095 90.6086344,18.8895475 90.6086344,17.5671041 C90.6086344,16.2029864 90.9271044,15.1353394 91.556354,14.3925339 C92.1812089,13.6546154 93.0594391,13.2800905 94.1674236,13.2800905 C95.2416248,13.2800905 96.097058,13.6377828 96.7099652,14.3438009 C97.3258936,15.0534842 97.6383211,16.1125792 97.6383211,17.4925792 C97.6383211,18.8895475 97.3442959,19.9626244 96.7647602,20.6804525 C96.189207,21.3928507 95.3241605,21.7547511 94.1922805,21.7547511 L94.1922805,21.7547511 Z M94.3304352,10.7748869 C92.1838182,10.7748869 90.4791315,11.3964706 89.264441,12.6223982 C88.0498878,13.8484615 87.4336847,15.5451584 87.4336847,17.6657919 C87.4336847,19.6808145 88.0351934,21.3001357 89.2209072,22.4804525 C90.4066209,23.6611765 92.0201199,24.259276 94.0164971,24.259276 C96.0965087,24.259276 97.7675493,23.6290045 98.9823772,22.3861086 C100.196793,21.1445701 100.812447,19.4638914 100.812447,17.3928054 C100.812447,15.3471041 100.234834,13.7148869 99.0951257,12.5424434 C97.9548685,11.369457 96.3516692,10.7748869 94.3304352,10.7748869 L94.3304352,10.7748869 Z M82.7292824,13.3126697 L82.7292824,11.0847964 L79.6679052,11.0847964 L79.6679052,23.949095 L82.7292824,23.949095 L82.7292824,17.3685068 C82.7292824,16.2495475 82.9859536,15.3302715 83.4924294,14.6359276 C83.9924507,13.9498643 84.6587795,13.6022172 85.4723269,13.6022172 C85.748087,13.6022172 86.0576306,13.6471493 86.3928549,13.7360633 C86.724646,13.8244344 86.9649749,13.9204072 87.1067002,14.0214027 L87.2353791,14.1135747 L87.2353791,11.0628054 L87.1858027,11.0417647 C86.9007041,10.9220362 86.4973636,10.861629 85.9870426,10.861629 C85.2177157,10.861629 84.5292766,11.1059729 83.9395783,11.5870588 C83.4219787,12.0099095 83.0478897,12.5896833 82.7618298,13.3126697 L82.7292824,13.3126697 Z M74.1855242,10.7748869 C72.7810426,10.7748869 71.5283114,11.0725792 70.4627621,11.6594118 C69.3950155,12.2476018 68.5692456,13.0873303 68.0074255,14.1551131 C67.4480774,15.2203167 67.1640774,16.4645701 67.1640774,17.8521719 C67.1640774,19.0676471 67.4394255,20.1830769 67.9836673,21.1661538 C68.5281838,22.1508597 69.2988839,22.9212217 70.2744816,23.4555204 C71.248706,23.9891403 72.3746809,24.2596833 73.6213694,24.2596833 C75.0762515,24.2596833 76.3184081,23.9721719 77.3143308,23.4051584 L77.3545687,23.3823529 L77.3545687,20.61 L77.2258897,20.7028507 C76.7747582,21.0276923 76.270617,21.2869683 75.7281605,21.4737557 C75.1870774,21.6604072 74.6937853,21.7547511 74.2611934,21.7547511 C73.0599613,21.7547511 72.0956248,21.3832127 71.3956499,20.650724 C70.6941644,19.9172851 70.3384778,18.8873756 70.3384778,17.5914027 C70.3384778,16.2872851 70.7094081,15.230905 71.4404197,14.451448 C72.169234,13.6742986 73.1353559,13.2800905 74.3117311,13.2800905 C75.3179536,13.2800905 76.2984952,13.6168778 77.2261644,14.2820362 L77.3545687,14.3742081 L77.3545687,11.4530769 L77.3130948,11.43 C76.964,11.2368326 76.4878743,11.0773303 75.8968027,10.9563801 C75.3082031,10.8357014 74.7325126,10.7748869 74.1855242,10.7748869 L74.1855242,10.7748869 Z M65.0556383,11.0849321 L61.9942611,11.0849321 L61.9942611,23.949095 L65.0556383,23.949095 L65.0556383,11.0849321 L65.0556383,11.0849321 Z M63.5562611,5.60470588 C63.0523946,5.60470588 62.6129362,5.77425339 62.2518936,6.11022624 C61.8893404,6.44714932 61.7054545,6.87135747 61.7054545,7.37199095 C61.7054545,7.86475113 61.8871431,8.28122172 62.2462631,8.60918552 C62.6030484,8.9361991 63.0438801,9.1019457 63.5563985,9.1019457 C64.0687795,9.1019457 64.5112592,8.9361991 64.8723017,8.60972851 C65.2356789,8.28122172 65.4199768,7.86488688 65.4199768,7.37199095 C65.4199768,6.88886878 65.2406228,6.46900452 64.8872708,6.1238009 C64.5341934,5.77927602 64.0862205,5.60470588 63.5562611,5.60470588 L63.5562611,5.60470588 Z M55.9179246,10.1357919 L55.9179246,23.949095 L59.0421992,23.949095 L59.0421992,5.99850679 L54.7180658,5.99850679 L49.2218143,19.3316742 L43.8880251,5.99850679 L39.3878337,5.99850679 L39.3878337,23.9489593 L42.3238279,23.9489593 L42.3238279,10.1344344 L42.4246286,10.1344344 L48.0569749,23.949095 L50.2726692,23.949095 L55.8171238,10.1357919 L55.9179246,10.1357919 L55.9179246,10.1357919 Z" id="Shape"></path>
                            <polygon id="Shape" points="14.4016015 14.2354751 0 14.2354751 0 0 14.4016015 0"></polygon>
                            <polygon id="Shape" points="30.3025803 14.2354751 15.9012534 14.2354751 15.9012534 0 30.3025803 0"></polygon>
                            <polygon id="Shape" points="14.4011896 29.9585973 0 29.9585973 0 15.7232579 14.4011896 15.7232579"></polygon>
                            <polygon id="Shape" points="30.3025803 29.9585973 15.9012534 29.9585973 15.9012534 15.7232579 30.3025803 15.7232579"></polygon>
                        </g>
                    </g>
                </g>
            </g>
        </g>
    </g>
</svg>