<?xml version="1.0" encoding="UTF-8"?>
<svg width="97px" height="35px" viewBox="0 0 97 35" version="1.1" xmlns="http://www.w3.org/2000/svg" xmlns:xlink="http://www.w3.org/1999/xlink">
    <!-- Generator: Sketch 42 (36781) - http://www.bohemiancoding.com/sketch -->
    <title>nike_logo</title>
    <desc>Created with Sketch.</desc>
    <defs></defs>
    <g id="Page-1" stroke="none" stroke-width="1" fill="none" fill-rule="evenodd">
        <g id="Edd-landing-page" transform="translate(-230.000000, -3875.000000)" fill-rule="nonzero" fill="#B6C8D5">
            <g transform="translate(-256.000000, -2.000000)" id="Clients">
                <g transform="translate(256.000000, 3779.000000)">
                    <g id="nike_logo" transform="translate(230.000000, 98.000000)">
                        <g id="Group">
                            <path d="M12.3395998,1.5421647 C6.07107793,8.92652833 0.060757456,18.0838011 0.00048930685,24.9285283 C-0.0229835512,27.503892 0.796663277,29.7521647 2.76267374,31.4550738 C5.59210474,33.9076192 8.70955406,34.7724374 11.8117777,34.7775283 C16.3452113,34.783892 20.8469249,32.9492556 24.37166,31.5346192 C30.3077555,29.1533465 95.925813,0.56980106 95.925813,0.56980106 C96.5589458,0.251619242 96.4403127,-0.144835304 95.6479452,0.0530737871 C95.3282068,0.133255605 24.2124252,19.4653465 24.2124252,19.4653465 C22.8653634,19.847501 21.4734349,20.047391 20.0735894,20.0597102 C14.6082198,20.0921647 9.74489742,17.0490738 9.78423031,10.6364374 C9.79945595,8.12725561 10.5651786,5.10134651 12.3395998,1.5421647 L12.3395998,1.5421647 Z" id="Shape"></path>
                        </g>
                    </g>
                </g>
            </g>
        </g>
    </g>
</svg>