<?xml version="1.0" encoding="UTF-8"?>
<svg width="126px" height="42px" viewBox="0 0 126 42" version="1.1" xmlns="http://www.w3.org/2000/svg" xmlns:xlink="http://www.w3.org/1999/xlink">
    <!-- Generator: Sketch 42 (36781) - http://www.bohemiancoding.com/sketch -->
    <title>samsung_logo</title>
    <desc>Created with Sketch.</desc>
    <defs></defs>
    <g id="Page-1" stroke="none" stroke-width="1" fill="none" fill-rule="evenodd">
        <g id="Edd-landing-page" transform="translate(-870.000000, -3871.000000)" fill-rule="nonzero" fill="#B6C8D5">
            <g transform="translate(-256.000000, -2.000000)" id="Clients">
                <g transform="translate(256.000000, 3779.000000)">
                    <g id="samsung_logo" transform="translate(870.000000, 94.000000)">
                        <path d="M125.029097,9.99927386 C123.328001,0.122366192 93.9787932,-2.95991451 59.4733321,3.11454752 C44.9822349,5.66694309 31.8975018,9.43158479 21.7077481,13.6668855 C23.2730059,13.7015391 24.4338639,14.0644568 25.1392269,14.7758008 C25.6906812,15.3340389 25.9692124,16.1001986 25.9692124,17.054748 L25.9692124,18.0344999 L22.5857131,18.0344999 L22.5857131,17.1694199 C22.5857131,16.4486249 22.1582582,16.0019084 21.4011769,16.0019084 C20.7649793,16.0019084 20.3730417,16.2923686 20.2465499,16.8644682 C20.2041566,17.0906236 20.2088253,17.3232293 20.2602584,17.5474592 C20.6222866,19.0438649 25.6464403,19.9732116 26.1929097,22.734789 C26.2645676,23.0901459 26.3617731,23.8506351 26.2084875,24.9387583 C25.895062,27.16604 23.9596755,28.0254494 21.4958899,28.0254494 C18.0569337,28.0254494 16.6599161,26.3784581 16.6599161,24.1077018 L16.6624086,23.03344 L20.2895447,23.03344 L20.291414,24.3716993 C20.291414,25.1239976 20.8322754,25.5392108 21.568794,25.5392108 C22.2666797,25.5392108 22.6741951,25.2550512 22.8150184,24.6741307 C22.8804452,24.4069829 22.9091084,24.013192 22.7900939,23.7120206 C22.1190021,22.0095835 17.4275904,21.2144408 16.8499654,18.4616844 C16.7209811,17.84296 16.7103882,17.3162252 16.8175635,16.6502459 C16.8725517,16.3201143 16.9736768,15.9995641 17.1179036,15.6982168 C5.81527145,21.0430629 -0.796572074,26.9240948 0.0770312274,32.0017932 C1.77999686,41.879961 31.1285814,44.9590913 65.6334193,38.8846293 C80.8012164,36.2150415 94.4374038,32.2185357 104.815337,27.7400297 C104.665167,27.7475905 104.519359,27.7639722 104.363581,27.7639722 C102.001986,27.7639722 99.8933742,26.8692791 99.6746618,24.4284052 C99.6360288,23.984209 99.6291746,23.7983396 99.6279284,23.5450533 L99.6291746,17.9336894 C99.6291746,17.6917442 99.6572146,17.2670801 99.6840085,17.0478172 C99.9637858,14.6888518 101.808198,13.7160306 104.364827,13.7160306 C106.343209,13.7160306 108.768984,14.2900203 109.035676,17.0497074 C109.071194,17.3962435 109.067455,17.766092 109.066832,17.8876946 L109.066832,18.4175798 L105.649685,18.4175798 L105.649685,17.6268475 C105.649685,17.6098357 105.6447,17.314335 105.607313,17.1297258 C105.551233,16.8480865 105.313827,16.1953385 104.340526,16.1953385 C103.379064,16.1953385 103.129819,16.8493466 103.067508,17.1303558 C103.03199,17.2847219 103.015166,17.506505 103.015166,17.7522305 L103.015166,23.8506351 C103.012051,24.0623371 103.022644,24.2280443 103.043829,24.349647 C103.060653,24.4454169 103.233256,25.2859244 104.352365,25.2859244 C105.463374,25.2859244 105.635353,24.4454169 105.650931,24.349647 C105.680217,24.1845698 105.683956,23.9879894 105.68271,23.8506351 L105.68271,21.9610685 L104.338033,21.9610685 L104.338033,19.9259567 L109.093003,19.9259567 L109.093003,23.5463134 C109.091756,23.792669 109.088018,23.974758 109.046892,24.4284052 C108.989566,25.0685518 108.79017,25.6104082 108.477368,26.0735063 C119.483399,20.7891465 125.891484,15.0032545 125.029097,9.99927386 L125.029097,9.99927386 Z M35.5576629,27.5043852 L33.8266572,15.6112678 L33.764346,15.6112678 L31.9890993,27.5043852 L28.3407774,27.5043852 L30.7945932,14.0732778 L36.7471841,14.0732778 L39.1860452,27.5043852 L35.5576629,27.5043852 L35.5576629,27.5043852 Z M53.1057486,27.5043852 L53.0253671,15.8412417 L52.9667946,15.8412417 L50.820173,27.5043852 L47.3961715,27.5043852 L45.2601429,15.8412417 L45.1990779,15.8412417 L45.1211889,27.5043852 L41.728343,27.5043852 L42.0224519,14.0732778 L47.4796685,14.0732778 L49.0686046,24.0503658 L49.1464937,24.0503658 L50.7397916,14.0732778 L56.1945157,14.0732778 L56.4873785,27.5043852 L53.1057486,27.5043852 Z M69.0829684,24.9015844 C68.7178247,27.5031251 66.1973358,27.9580324 64.4158581,27.9580324 C61.4579445,27.9580324 59.6284871,26.6796294 59.6284871,24.0780887 L59.6303564,23.0170583 L63.2138746,23.0170583 L63.2163671,24.3389359 C63.2163671,25.0565805 63.7167262,25.4957362 64.4893853,25.4957362 C65.1785474,25.4957362 65.5823241,25.2159871 65.7225244,24.6413673 C65.787328,24.3735895 65.8141218,23.9829488 65.6994692,23.6880781 C65.0389703,22.0177744 60.3843222,21.1993192 59.8185363,18.4894072 C59.6889289,17.8750933 59.6795823,17.353399 59.7861344,16.6943505 C60.1799414,14.2377249 62.5116272,13.7273718 64.3884411,13.7273718 C66.0671054,13.7273718 67.2890284,14.0978503 68.0218084,14.8388074 C68.5682778,15.392005 68.8449396,16.151234 68.8449396,17.0957022 L68.8449396,18.0647431 L65.4938422,18.0647431 L65.4938422,17.2097441 C65.4938422,16.4776079 65.0445783,16.0542039 64.3223912,16.0542039 C63.6818319,16.0542039 63.2942561,16.3421438 63.1671412,16.9085728 C63.125885,17.1323938 63.1314036,17.3624675 63.1833421,17.584003 C63.5422548,19.073478 68.5221675,19.9839227 69.0673906,22.7196674 C69.1378023,23.0687237 69.2343847,23.8178717 69.0829684,24.9015844 Z M81.4941172,23.6811474 C81.4991021,23.9331736 81.4748007,24.436596 81.4610922,24.5657595 C81.2567114,26.7785497 79.6914536,27.9032167 76.8207757,27.9032167 C73.9388818,27.9032167 72.3723777,26.7785497 72.1692431,24.5657595 C72.1462219,24.2723145 72.1352042,23.9780328 72.1362182,23.6836677 L72.1362182,14.0701274 L75.5645815,14.0701274 L75.5645815,23.9867292 C75.5608428,24.2085123 75.5720589,24.3723293 75.5938678,24.4863712 C75.6362394,24.7068942 75.8530825,25.4226486 76.8207757,25.4226486 C77.7853534,25.4226486 78.0021964,24.7062641 78.0476836,24.4888915 C78.0670001,24.3716993 78.0788392,24.1996914 78.0788392,23.9860992 L78.0788392,14.0701274 L81.4941172,14.0701274 L81.4941172,23.6811474 Z M96.2649918,27.367661 L91.4944448,27.367661 L88.2922713,16.7290041 L88.2386836,16.7290041 L88.4162706,27.367661 L85.0913439,27.367661 L85.0913439,14.0732778 L90.0619099,14.0732778 L93.0216928,24.2929411 L93.0908583,24.2929411 L92.9157638,14.0732778 L96.2649918,14.0732778 L96.2649918,27.367661 L96.2649918,27.367661 Z" id="Shape"></path>
                    </g>
                </g>
            </g>
        </g>
    </g>
</svg>