<?xml version="1.0" encoding="UTF-8"?>
<svg width="16px" height="31px" viewBox="0 0 16 31" version="1.1" xmlns="http://www.w3.org/2000/svg" xmlns:xlink="http://www.w3.org/1999/xlink">
    <!-- Generator: Sketch 42 (36781) - http://www.bohemiancoding.com/sketch -->
    <title>scroll_icon</title>
    <desc>Created with Sketch.</desc>
    <defs></defs>
    <g id="Page-1" stroke="none" stroke-width="1" fill="none" fill-rule="evenodd" opacity="0.7">
        <g id="Edd-landing-page" transform="translate(-792.000000, -352.000000)" fill="#7A8F9D">
            <g transform="translate(-256.000000, -2.000000)" id="Header">
                <g transform="translate(256.000000, 0.000000)">
                    <g id="Headline-/-Tagline" transform="translate(633.000000, 116.000000)">
                        <g id="scroll_icon" transform="translate(159.000000, 238.000000)">
                            <path d="M16,7.71985088 C16,3.45726172 12.4971768,0 8.17767071,0 L7.82232929,0 C3.50282316,0 0,3.45726172 0,7.71985088 L0,14.2807435 C0,18.5433326 3.50282316,22 7.82232929,22 L8.17767071,22 C12.4971768,22 16,18.5433326 16,14.2807435 L16,7.71985088 Z M14.6894527,14.2807435 C14.6894527,16.0566242 13.9625085,17.658364 12.7820522,18.82386 C11.6009938,19.9869786 9.97726417,20.7043441 8.17767071,20.7067214 L7.82232929,20.7067214 C6.02273583,20.7067214 4.39960852,19.989356 3.21855003,18.82386 C2.03990062,17.658364 1.31295641,16.0566242 1.31054732,14.2807435 L1.31054732,7.71985088 C1.31054732,5.94337584 2.03749153,4.34163605 3.21855003,3.17614005 C4.39960852,2.0130214 6.02273583,1.29565593 7.82232929,1.29327858 L8.17767071,1.29327858 C9.97726417,1.29327858 11.6009938,2.01064405 12.7820522,3.17614005 C13.9607016,4.34163605 14.6876459,5.94337584 14.6894527,7.71985088 L14.6894527,14.2807435 Z" id="Fill-1"></path>
                            <path d="M7.49977054,7 C7.22395594,7 7,7.27237209 7,7.60837209 L7,9.39162791 C7,9.72706977 7.22395594,10 7.49977054,10 C7.77604406,10 8,9.72706977 8,9.39162791 L8,7.60837209 C7.9981643,7.27237209 7.77604406,7 7.49977054,7 Z" id="Fill-2"></path>
                            <path d="M7.58281439,30.8549277 C7.82711091,31.0483574 8.17120776,31.0483574 8.41550428,30.8549277 L11.7493252,28.188535 C12.0364807,27.9589901 12.084238,27.5409125 11.854636,27.25138 C11.625034,26.9642959 11.2062399,26.9165506 10.9172476,27.1460954 L7.99915933,29.4801072 L5.08352018,27.1460954 C4.79697689,26.9165506 4.37573377,26.9618474 4.14613178,27.25138 C3.91652979,27.538464 3.96183791,27.9565417 4.25144256,28.188535 L7.58281439,30.8549277 Z" id="Fill-3"></path>
                        </g>
                    </g>
                </g>
            </g>
        </g>
    </g>
</svg>